HIERARCHY
ROOT Hips
{
  OFFSET -43.3411 73.6987 0
  CHANNELS 6 Xposition Yposition Zposition Zrotation Xrotation Yrotation
  JOINT Bip01_Pelvis
  {
    OFFSET 0 0 0
    CHANNELS 6 Xposition Yposition Zposition Zrotation Xrotation Yrotation
    JOINT BN_Tail_01
    {
      OFFSET -18.6385 -9.591 -2.032e-005
      CHANNELS 6 Xposition Yposition Zposition Zrotation Xrotation Yrotation
      JOINT BN_Tail_02
      {
        OFFSET 20.9743 0 0
        CHANNELS 6 Xposition Yposition Zposition Zrotation Xrotation Yrotation
        JOINT BN_Tail_03
        {
          OFFSET 20.3015 0 0
          CHANNELS 6 Xposition Yposition Zposition Zrotation Xrotation Yrotation
          JOINT BN_Tail_04
          {
            OFFSET 21.6394 -9.91821e-005 0
            CHANNELS 6 Xposition Yposition Zposition Zrotation Xrotation Yrotation
            End Site
            {
              OFFSET 0 0 0
            }
          }
        }
      }
    }
    JOINT Bip01_Spine
    {
      OFFSET 22.1878 -0.659386 3.048e-005
      CHANNELS 6 Xposition Yposition Zposition Zrotation Xrotation Yrotation
      JOINT Bip01_R_Thigh
      {
        OFFSET -22.1873 0.677109 -17.1024
        CHANNELS 6 Xposition Yposition Zposition Zrotation Xrotation Yrotation
        JOINT Bip01_R_Calf
        {
          OFFSET 34.2647 0 0
          CHANNELS 6 Xposition Yposition Zposition Zrotation Xrotation Yrotation
          JOINT Bip01_R_HorseLink
          {
            OFFSET 20.4429 0 0
            CHANNELS 6 Xposition Yposition Zposition Zrotation Xrotation Yrotation
            JOINT Bip01_R_Foot
            {
              OFFSET 16.5673 0 0
              CHANNELS 6 Xposition Yposition Zposition Zrotation Xrotation Yrotation
              JOINT Bip01_R_Toe0
              {
                OFFSET 9.18784 6.94841 0
                CHANNELS 6 Xposition Yposition Zposition Zrotation Xrotation Yrotation
                JOINT Bip01_R_Toe0Nub
                {
                  OFFSET 1.01907 0 0
                  CHANNELS 6 Xposition Yposition Zposition Zrotation Xrotation Yrotation
                  End Site
                  {
                    OFFSET 0 0 0
                  }
                }
              }
            }
          }
        }
      }
      JOINT Bip01_L_Thigh
      {
        OFFSET -22.1873 0.67701 17.1024
        CHANNELS 6 Xposition Yposition Zposition Zrotation Xrotation Yrotation
        JOINT Bip01_L_Calf
        {
          OFFSET 34.2647 0 0
          CHANNELS 6 Xposition Yposition Zposition Zrotation Xrotation Yrotation
          JOINT Bip01_L_HorseLink
          {
            OFFSET 20.4429 0 0
            CHANNELS 6 Xposition Yposition Zposition Zrotation Xrotation Yrotation
            JOINT Bip01_L_Foot
            {
              OFFSET 16.5673 0 0
              CHANNELS 6 Xposition Yposition Zposition Zrotation Xrotation Yrotation
              JOINT Bip01_L_Toe0
              {
                OFFSET 9.18784 6.9484 1.14441e-005
                CHANNELS 6 Xposition Yposition Zposition Zrotation Xrotation Yrotation
                JOINT Bip01_L_Toe0Nub
                {
                  OFFSET 1.01907 0 0
                  CHANNELS 6 Xposition Yposition Zposition Zrotation Xrotation Yrotation
                  End Site
                  {
                    OFFSET 0 0 0
                  }
                }
              }
            }
          }
        }
      }
      JOINT Bip01_Spine1
      {
        OFFSET 39.3372 -0.0249863 0
        CHANNELS 6 Xposition Yposition Zposition Zrotation Xrotation Yrotation
        JOINT Bip01_Neck
        {
          OFFSET 34.2837 -15.5934 -4.318e-005
          CHANNELS 6 Xposition Yposition Zposition Zrotation Xrotation Yrotation
          JOINT Bip01_R_Clavicle
          {
            OFFSET -17.9452 -11.3131 -6.19287
            CHANNELS 6 Xposition Yposition Zposition Zrotation Xrotation Yrotation
            JOINT Bip01_R_UpperArm
            {
              OFFSET 17.4439 1.52588e-005 -2.28882e-005
              CHANNELS 6 Xposition Yposition Zposition Zrotation Xrotation Yrotation
              JOINT Bip01_R_Forearm
              {
                OFFSET 30.6251 1.14441e-005 0
                CHANNELS 6 Xposition Yposition Zposition Zrotation Xrotation Yrotation
                JOINT Bip01_R_Hand
                {
                  OFFSET 31.2039 0 0
                  CHANNELS 6 Xposition Yposition Zposition Zrotation Xrotation Yrotation
                  JOINT Bip01_R_Finger0
                  {
                    OFFSET 22.1039 0.255862 -0.37902
                    CHANNELS 6 Xposition Yposition Zposition Zrotation Xrotation Yrotation
                    JOINT Bip01_R_Finger0Nub
                    {
                      OFFSET 12.0552 0 0
                      CHANNELS 6 Xposition Yposition Zposition Zrotation Xrotation Yrotation
                      End Site
                      {
                        OFFSET 0 0 0
                      }
                    }
                  }
                }
              }
            }
          }
          JOINT Bip01_L_Clavicle
          {
            OFFSET -17.9452 -11.3132 6.19281
            CHANNELS 6 Xposition Yposition Zposition Zrotation Xrotation Yrotation
            JOINT Bip01_L_UpperArm
            {
              OFFSET 17.444 0 1.14441e-005
              CHANNELS 6 Xposition Yposition Zposition Zrotation Xrotation Yrotation
              JOINT Bip01_L_Forearm
              {
                OFFSET 30.6251 0 0
                CHANNELS 6 Xposition Yposition Zposition Zrotation Xrotation Yrotation
                JOINT Bip01_L_Hand
                {
                  OFFSET 31.204 0 0
                  CHANNELS 6 Xposition Yposition Zposition Zrotation Xrotation Yrotation
                  JOINT Bip01_L_Finger0
                  {
                    OFFSET 22.1039 0.255856 0.379024
                    CHANNELS 6 Xposition Yposition Zposition Zrotation Xrotation Yrotation
                    JOINT Bip01_L_Finger0Nub
                    {
                      OFFSET 12.0552 0 0
                      CHANNELS 6 Xposition Yposition Zposition Zrotation Xrotation Yrotation
                      End Site
                      {
                        OFFSET 0 0 0
                      }
                    }
                  }
                }
              }
            }
          }
          JOINT Bip01_Neck1
          {
            OFFSET 14.9359 -0.0106278 0
            CHANNELS 6 Xposition Yposition Zposition Zrotation Xrotation Yrotation
            JOINT Bip01_Head
            {
              OFFSET 14.3578 0.505501 0
              CHANNELS 6 Xposition Yposition Zposition Zrotation Xrotation Yrotation
              JOINT BN_Ear_L_01
              {
                OFFSET 3.76994 -2.35629 12.3444
                CHANNELS 6 Xposition Yposition Zposition Zrotation Xrotation Yrotation
                End Site
                {
                  OFFSET 0 0 0
                }
              }
              JOINT BN_Ear_R_01
              {
                OFFSET 3.76995 -2.35622 -12.3442
                CHANNELS 6 Xposition Yposition Zposition Zrotation Xrotation Yrotation
                End Site
                {
                  OFFSET 0 0 0
                }
              }
              JOINT BN_Mouth_01
              {
                OFFSET 11.8395 10.8645 1.27e-005
                CHANNELS 6 Xposition Yposition Zposition Zrotation Xrotation Yrotation
                JOINT BN_Tongue_01
                {
                  OFFSET 9.73752 3.21674 1.016e-005
                  CHANNELS 6 Xposition Yposition Zposition Zrotation Xrotation Yrotation
                  JOINT BN_Tongue_02
                  {
                    OFFSET 9.04304 0.053505 0
                    CHANNELS 6 Xposition Yposition Zposition Zrotation Xrotation Yrotation
                    End Site
                    {
                      OFFSET 0 0 0
                    }
                  }
                }
                JOINT BN_Beard_01
                {
                  OFFSET 6.93466 -0.751793 0
                  CHANNELS 6 Xposition Yposition Zposition Zrotation Xrotation Yrotation
                  JOINT BN_Beard_02
                  {
                    OFFSET 13.0965 1.52588e-005 0
                    CHANNELS 6 Xposition Yposition Zposition Zrotation Xrotation Yrotation
                    End Site
                    {
                      OFFSET 0 0 0
                    }
                  }
                }
              }
              JOINT Bip01_HeadNub
              {
                OFFSET 25.6158 0 0
                CHANNELS 6 Xposition Yposition Zposition Zrotation Xrotation Yrotation
                End Site
                {
                  OFFSET 0 0 0
                }
              }
            }
          }
        }
      }
    }
  }
}
MOTION
Frames:	4
Frame Time:	0.0333333
-35.0536 59.9651 2.7209 -98.4456 -78.5616 -17.9418 -3.8147e-006 4.76837e-007 3.55271e-015 -77.3291 -28.3071 -96.7136 -18.6385 -9.59101 -1.77636e-015 12.4265 9.97742 -173.081 20.9743 -7.62942e-006 -0.000607491 10.7517 12.9365 5.26753 20.3015 7.6294e-006 4.61853e-014 7.3107 5.46597 9.03513 21.6394 -7.6294e-006 1.90735e-006 21.0474 16.2068 6.01567 19.1129 -11.0877 -2.11219 -29.546 -3.21788 14.1109 -17.7822 1.06116 -19.89 -41.429 -18.1727 154.086 34.2647 -3.8147e-006 -3.8147e-006 -20.8211 5.74444e-006 1.28579e-005 20.4429 3.8147e-006 -3.8147e-006 72.663 3.37763e-007 5.05728e-007 16.5673 -1.42109e-014 -3.8147e-006 -2.71221 -3.75463 19.3026 9.18785 6.9484 -4.80583e-009 88.4878 2.6786e-007 -1.04135e-005 1.01905 -2.38419e-007 0 -2.86895e-008 -7.14669e-009 2.11651e-006 -26.1087 -0.857493 13.2304 -79.6542 15.1222 173.091 34.2647 -9.05991e-006 2.13163e-014 -67.8943 -6.72804e-006 -1.60818e-005 20.4429 -1.90735e-006 -3.8147e-006 104.949 -2.99521e-006 -9.4681e-006 16.5673 -3.8147e-006 -3.8147e-006 -35.1474 -25.3879 -4.09817 9.18784 6.94841 -3.80442e-006 86.1912 3.05344e-007 -1.52271e-006 1.01907 1.1921e-007 3.8147e-006 -179.96 -5.89753e-005 1.70328e-005 39.3332 -0.0241928 -0.000947475 -7.86387 10.7871 8.0404 34.2892 -15.5918 5.16776e-005 -17.0809 6.78581 6.76492 -12.4426 -17.3556 -5.67439 -159.267 -39.8952 99.6124 17.4439 -1.14441e-005 7.62939e-006 64.7991 35.9384 -75.4108 30.6251 7.62941e-006 1.90735e-006 -56.5466 -1.66996e-005 -9.24103e-006 31.2039 -2.86103e-006 1.90735e-006 64.3978 78.7381 -85.7088 22.1039 0.255853 -0.379036 -5.25628 -6.86685 0.480557 12.0552 3.81471e-006 1.19209e-007 179.96 1.74742e-005 -1.0161e-005 -13.8918 -15.8919 6.5388 -168.492 50.4251 -87.1661 17.4439 7.6294e-006 1.52588e-005 9.50777 -55.3494 51.6572 30.6251 -6.67573e-006 7.62939e-006 -57.933 -1.64094e-005 -1.14772e-006 31.2039 -3.8147e-006 3.8147e-006 -152.665 -73.7434 161.822 22.1039 0.25586 0.37902 4.87634 7.79744 -58.8398 12.0552 7.46072e-013 -3.81469e-006 -1.6142e-007 1.03261e-005 1.42331e-006 14.9354 -0.0106735 0.000170708 -22.466 0.406621 9.60444 14.3577 0.505509 -1.26161e-007 -42.9572 15.157 15.0479 3.76991 -2.35626 12.3444 -136.354 1.14286 -97.8214 3.76995 -2.3562 -12.3442 -35.9522 -34.7976 78.8737 11.8395 10.8645 -1.295e-006 -130.144 -1.69576 -170.31 9.7375 3.21674 -1.53404e-006 -2.85748 8.8105e-006 9.94799e-006 5.17482 0.535249 -0.1598 -9.7303 -1.3278e-006 8.45183e-006 6.93465 -0.751786 -8.18038e-007 -72.5165 -15.3081 25.1568 13.0965 -7.62941e-006 -2.38417e-007 27.2452 3.6209 5.49766 25.6158 7.6294e-006 -5.04485e-013 -6.59263e-008 1.08709e-006 -6.07725e-008 
-33.279 57.844 3.05621 -107.844 -79.4937 -25.6304 -3.8147e-006 4.76837e-007 -3.55271e-015 -77.114 -28.6172 -96.3191 -18.6385 -9.59101 -3.55271e-015 10.2236 9.11882 -170.154 20.9743 -7.62941e-006 -0.000607491 -0.326798 9.5645 7.17814 20.3015 7.6294e-006 -4.26326e-014 -0.17413 6.6335 14 21.6394 -7.6294e-006 1.90735e-006 11.61 19.0792 10.8017 19.0671 -11.1908 -1.97122 -30.9384 -3.06323 14.901 -17.4755 0.60426 -20.2973 -35.8807 -19.6328 156.096 34.2647 -3.8147e-006 -3.8147e-006 -11.8381 7.63473e-006 1.19415e-005 20.4429 3.8147e-006 -3.8147e-006 70.2659 9.4395e-006 3.779e-006 16.5673 0 -3.8147e-006 -3.71825 -3.28515 19.4381 9.18785 6.9484 -4.73857e-009 89.0252 1.01942e-005 -1.02458e-005 1.01905 -2.38419e-007 0 -2.86895e-008 -7.14669e-009 2.11651e-006 -26.2593 -1.22335 12.7099 -79.8266 16.075 174.504 34.2647 -9.05991e-006 1.77636e-014 -75.1482 -4.64694e-006 -1.68078e-005 20.4429 -1.90735e-006 -3.8147e-006 111.021 -3.97716e-006 -9.10292e-006 16.5673 -3.8147e-006 -3.8147e-006 -32.4323 -24.6859 -4.22426 9.18784 6.94841 -3.80476e-006 85.2413 1.01656e-005 -6.86141e-007 1.01907 1.1921e-007 3.8147e-006 -179.96 -5.89753e-005 1.70329e-005 39.3341 -0.0241928 -0.000947475 -5.93567 10.8433 9.1907 34.2892 -15.5918 5.16888e-005 -14.9926 3.89222 6.56998 -12.9569 -16.6376 -6.59916 -160.039 -42.865 101.05 17.4439 -1.14441e-005 7.62939e-006 64.9587 31.1344 -74.7642 30.6251 7.62941e-006 1.90735e-006 -64.5484 -7.23049e-006 -1.54444e-005 31.2039 -2.86103e-006 1.90735e-006 71.9048 79.4021 -94.2228 22.1039 0.255853 -0.379036 -6.7162 -7.48692 -1.25569 12.0552 3.81472e-006 1.19209e-007 179.96 1.74742e-005 -1.01603e-005 -14.3709 -15.7968 5.67664 -171.627 50.8265 -82.2773 17.4439 7.6294e-006 1.52588e-005 9.99232 -55.3886 45.8024 30.6251 -6.67573e-006 7.62939e-006 -59.3286 -1.59195e-005 -6.46605e-007 31.2039 -3.8147e-006 3.8147e-006 -153.232 -64.4548 167.153 22.1039 0.25586 0.37902 6.20265 10.6219 -53.2179 12.0552 7.9581e-013 -3.81469e-006 -1.6142e-007 1.03261e-005 1.42331e-006 14.9354 -0.0106735 0.000170708 -20.2961 3.49153 10.3629 14.3577 0.505509 -1.21481e-007 -48.5955 19.334 15.7432 3.76991 -2.35626 12.3444 -135.256 -0.233622 -86.7836 3.76995 -2.3562 -12.3442 -38.3625 -36.588 76.7606 11.8396 10.8645 -1.02003e-006 -130.38 -1.42327 -170.449 9.73751 3.21674 -1.60491e-006 -2.85748 8.88533e-006 9.88507e-006 5.17482 0.535249 -0.1598 -9.7303 -1.22988e-006 8.22608e-006 6.93465 -0.751786 -8.01473e-007 -63.6836 -22.66 36.7435 13.0965 -7.62941e-006 -2.38417e-007 48.1041 -0.039366 19.5999 25.6158 7.6294e-006 -3.41061e-013 -6.59263e-008 1.08709e-006 -6.07725e-008 
-31.7095 55.6566 3.38605 -119.03 -80.2596 -35.0455 -3.8147e-006 4.76837e-007 0 -76.8547 -28.1557 -95.8952 -18.6385 -9.59101 -7.10543e-015 7.78762 8.22333 -167.148 20.9743 -7.62941e-006 -0.000607491 -11.4884 6.11103 8.91159 20.3015 7.6294e-006 -1.35003e-013 -8.2624 7.65939 18.6707 21.6394 -7.6294e-006 1.90735e-006 1.52419 21.6502 15.3679 19.1708 -11.0346 -1.83769 -31.0808 -2.63576 15.8116 -17.1173 0.25483 -20.7178 -30.0039 -21.3513 158.483 34.2647 -3.8147e-006 -3.8147e-006 -0.136421 9.86438e-006 1.03336e-005 20.4429 3.8147e-006 -3.8147e-006 65.3416 9.05368e-006 4.53552e-006 16.5673 -1.42109e-014 -3.8147e-006 -4.41525 -3.01498 19.6039 9.18785 6.9484 -4.79513e-009 89.9369 1.00367e-005 -1.04062e-005 1.01905 -2.38419e-007 0 -2.86895e-008 -7.1467e-009 2.11651e-006 -26.4284 -1.31767 12.1578 -80.4767 17.0027 175.935 34.2647 -9.05991e-006 1.06581e-014 -82.2315 -2.54229e-006 -1.72575e-005 20.4429 -1.90735e-006 -3.8147e-006 116.963 -4.89439e-006 -8.64674e-006 16.5673 -3.8147e-006 -3.8147e-006 -29.8415 -23.974 -4.57379 9.18784 6.94841 -3.80601e-006 84.3098 2.54367e-007 -1.48429e-006 1.01907 1.1921e-007 3.8147e-006 -179.96 -5.89753e-005 1.7033e-005 39.3349 -0.0241928 -0.000947475 -5.30255 11.2688 10.2939 34.2892 -15.5918 5.16982e-005 -12.7446 1.2721 6.33874 -13.523 -15.8418 -7.37947 -161.24 -45.2826 101.954 17.4439 -1.14441e-005 7.62939e-006 65.3975 25.6976 -73.8931 30.6251 7.62941e-006 1.90735e-006 -73.1717 -4.31286e-006 -1.67287e-005 31.2039 -2.86103e-006 1.90735e-006 80.4975 79.9045 -103.3 22.1039 0.255853 -0.379036 -7.79846 -7.93926 -2.54842 12.0552 3.81472e-006 1.19209e-007 179.96 1.74742e-005 -1.01599e-005 -14.8902 -15.5665 4.92743 -174.686 51.3843 -77.8599 17.4439 7.6294e-006 1.52588e-005 11.2857 -54.7555 41.5443 30.6251 -6.67573e-006 7.62939e-006 -61.3473 -6.86368e-006 -4.6052e-006 31.2039 -3.8147e-006 3.8147e-006 -155.275 -55.5116 171.234 22.1039 0.25586 0.37902 7.19517 13.4594 -46.1643 12.0552 6.82123e-013 -3.81469e-006 -1.6142e-007 1.03261e-005 1.42331e-006 14.9354 -0.0106735 0.000170708 -18.4812 5.63796 10.8202 14.3577 0.505509 -1.14733e-007 -51.3304 22.4351 15.5865 3.76991 -2.35626 12.3444 -134.156 -0.0525748 -76.3067 3.76995 -2.3562 -12.3442 -39.2339 -37.1869 75.9743 11.8396 10.8645 -1.06508e-006 -130.95 -1.13621 -170.828 9.73751 3.21674 -1.62986e-006 -2.85748 9.31255e-006 1.85253e-006 5.17482 0.535249 -0.1598 -9.7303 -1.1641e-006 8.14643e-006 6.93465 -0.751786 -7.95642e-007 -55.1337 -26.5676 43.5236 13.0965 -7.62941e-006 -2.38418e-007 57.2408 -1.41243 25.4437 25.6158 7.6294e-006 -4.12115e-013 -6.59263e-008 1.08709e-006 -6.07723e-008 
-30.2932 53.4199 3.71166 -132.01 -80.7318 -46.2157 -3.8147e-006 4.76837e-007 0 -76.498 -26.8326 -95.5088 -18.6385 -9.59101 2.66454e-015 5.14694 7.3605 -164.273 20.9743 -7.62941e-006 -0.000607491 -22.0049 2.8228 10.5006 20.3015 7.6294e-006 -2.27374e-013 -16.5152 8.50182 22.8869 21.6394 -7.6294e-006 1.90735e-006 -8.5135 23.8093 19.5643 19.4318 -10.5858 -1.72964 -30.3389 -2.11001 16.9565 -16.6679 -0.114728 -21.1694 -30.5739 -20.7482 158.514 34.2647 -3.8147e-006 -3.8147e-006 -5.10409 9.75124e-006 1.99669e-006 20.4429 3.8147e-006 -3.8147e-006 69.7936 -6.62821e-008 3.67729e-007 16.5673 0 -3.8147e-006 -4.62469 -2.95105 19.8225 9.18785 6.9484 -5.08496e-009 91.3394 -2.29086e-007 -1.04121e-005 1.01905 -2.38419e-007 0 -2.86895e-008 -7.14669e-009 2.11651e-006 -26.6377 -1.37244 11.5261 -81.0136 17.9975 177.297 34.2647 -9.05991e-006 2.13163e-014 -89.0211 -4.88945e-007 -1.7441e-005 20.4429 -1.90735e-006 -3.8147e-006 122.764 -5.74002e-006 -8.11293e-006 16.5673 -3.8147e-006 -3.8147e-006 -27.3561 -23.2856 -5.12484 9.18784 6.94841 -3.80823e-006 83.3691 9.88669e-006 -3.24877e-007 1.01907 1.1921e-007 3.8147e-006 -179.96 -5.89752e-005 1.70331e-005 39.3351 -0.0241928 -0.000947475 -5.02574 12.0302 11.3661 34.2892 -15.5918 5.17094e-005 -10.4531 -0.747751 6.28425 -14.0826 -15.0434 -7.98024 -162.755 -46.7985 102.423 17.4439 -1.14441e-005 7.62939e-006 65.969 20.327 -72.8152 30.6251 7.62941e-006 1.90735e-006 -81.7126 -3.15019e-006 -1.71943e-005 31.2039 -2.86103e-006 1.90735e-006 88.7241 80.3609 -111.972 22.1038 0.255853 -0.379036 -8.58236 -8.27357 -3.46671 12.0552 3.81472e-006 1.19209e-007 179.96 1.74742e-005 -1.01595e-005 -15.4387 -15.2058 4.3299 -177.654 51.8758 -74.2651 17.4439 7.6294e-006 1.52588e-005 13.5345 -53.8408 39.7442 30.6251 -6.67573e-006 7.62939e-006 -64.5747 -6.32798e-006 -3.18198e-006 31.2039 -3.8147e-006 3.8147e-006 -157.346 -47.6699 174.789 22.1039 0.25586 0.37902 7.99199 16.106 -38.4049 12.0552 4.90276e-013 -3.81469e-006 -1.6142e-007 1.03261e-005 1.42331e-006 14.9354 -0.0106735 0.000170708 -17.7017 6.41011 11.2536 14.3577 0.505509 -1.12234e-007 -50.9654 24.1576 14.4299 3.76991 -2.35626 12.3444 -133.425 1.35189 -66.6776 3.76995 -2.3562 -12.3442 -39.9158 -37.3313 76.5239 11.8395 10.8645 -1.34493e-006 -131.832 -0.830162 -171.428 9.7375 3.21675 -1.63277e-006 -2.85748 9.28052e-006 1.84993e-006 5.17482 0.535249 -0.1598 -9.7303 -1.21915e-006 8.1431e-006 6.93465 -0.751787 -7.94962e-007 -48.5658 -28.6049 46.5846 13.0965 -7.62942e-006 -2.38418e-007 56.8551 -1.3978 25.0827 25.6158 7.6294e-006 -5.54223e-013 -6.59263e-008 1.08709e-006 -6.07719e-008 
